<svg width="67" height="67" viewBox="0 0 67 67" fill="none" xmlns="http://www.w3.org/2000/svg">
<g clip-path="url(#clip0)">
<path d="M37.7759 61.4165C36.9943 61.4165 36.3799 62.0309 36.3799 62.8125H33.5884C33.5884 62.0309 32.974 61.4165 32.1924 61.4165C31.4108 61.4165 30.7964 62.0309 30.7964 62.8125V65.604C30.7964 66.3861 31.4108 67 32.1924 67H37.7759C38.5575 67 39.1714 66.3861 39.1714 65.604V62.8125C39.1714 62.0309 38.5575 61.4165 37.7759 61.4165V61.4165Z" fill="#388E3C"/>
<path d="M25.9393 19.5415H33.5884V25.125H25.353C25.4644 23.1708 25.6878 21.3004 25.9393 19.5415Z" fill="#FFD54F"/>
<path d="M26.4418 16.75C26.8885 14.6844 27.4186 12.814 28.0049 11.1665H33.5884V16.75H26.4418Z" fill="#FFD54F"/>
<path d="M36.3799 11.1665H41.9634H41.9911C42.6055 12.8416 43.108 14.7401 43.5547 16.7781C43.4709 16.7781 43.4152 16.75 43.3589 16.75H36.3799V11.1665Z" fill="#FFD54F"/>
<path d="M40.8189 8.37492H36.3799V3.09863C37.9993 3.79638 39.5068 5.66726 40.8189 8.37492Z" fill="#FFD54F"/>
<path d="M33.5884 3.1543V8.37487H29.1776C30.5173 5.63909 32.0529 3.85255 33.5884 3.1543Z" fill="#FFD54F"/>
<path d="M25.2134 29.3125C25.2134 28.8381 25.241 28.3914 25.241 27.9165H33.5884V33.5H28.4517C27.391 32.0483 26.3298 30.7361 25.2134 29.6754V29.3125Z" fill="#FFD54F"/>
<path d="M33.5884 42.2379C32.5272 40.0604 31.4666 38.0504 30.3778 36.2915H33.5884V42.2379Z" fill="#FFD54F"/>
<path d="M36.3799 27.9165H40.1488C38.669 31.0433 37.413 34.3373 36.3799 37.5198V27.9165Z" fill="#FFD54F"/>
<path d="M41.5724 25.1249H36.3799V19.5414H43.3589C43.5823 19.5414 43.8057 19.4576 44.0015 19.3743C44.0848 19.8486 44.141 20.2954 44.1967 20.7698C43.2756 22.0819 42.4102 23.5618 41.5724 25.1249Z" fill="#FFD54F"/>
<path d="M55.7262 14.6282C55.4752 14.2377 55.0841 13.9862 54.6098 13.9586C44.9783 13.3441 37.2454 32.4394 34.4815 44.0802C26.1627 25.5161 17.983 24.2878 12.4552 25.1532C11.7574 25.2365 11.2268 25.8509 11.2549 26.5487C11.2831 27.2469 11.8131 27.8327 12.5114 27.9166C19.1832 28.6148 20.2163 38.4973 20.7468 43.8293C20.8583 44.8061 20.9421 45.6439 21.0259 46.2859C21.0817 46.6489 21.1374 47.0956 21.1931 47.57C21.8914 52.5391 23.4545 64.2086 34.9839 64.2086C48.189 64.2086 49.473 44.6666 50.1151 35.2866C50.1989 34.0864 50.2546 33.0533 50.3384 32.2436C50.8685 26.9397 51.9573 24.5669 54.0792 19.8488C54.6098 18.6761 55.168 17.3921 55.81 15.9128C55.9777 15.4936 55.9495 15.0192 55.7262 14.6282V14.6282Z" fill="#4CAF50"/>
<path d="M34.9839 50.25C34.4257 50.25 33.8951 49.9152 33.6999 49.3565C30.3502 40.87 26.7209 34.7841 22.8963 31.2948C22.6172 31.0433 22.4495 30.6804 22.4495 30.2893L22.4214 29.3125C22.4214 12.8697 27.9492 0 34.9839 0C40.7627 0 45.4808 8.23545 47.0439 20.9656C47.1002 21.3285 46.9882 21.6634 46.793 21.9706C41.5167 29.173 37.3292 42.3494 36.3799 49.0774C36.2961 49.6918 35.7936 50.1943 35.1516 50.2781C35.0959 50.25 35.0401 50.25 34.9839 50.25V50.25ZM25.2134 29.6754C28.4793 32.8299 31.6061 37.6875 34.4814 44.1083C36.1565 37.0455 39.6463 27.1906 44.1967 20.7698C42.8288 10.3292 38.9761 2.7915 34.9839 2.7915C30.3502 2.7915 25.2134 13.6794 25.2134 29.3125V29.6754Z" fill="black"/>
<path d="M34.9839 64.2086C23.4545 64.2086 21.8914 52.5391 21.2212 47.57C21.1655 47.0956 21.1098 46.6489 21.0535 46.2859C20.9421 45.6439 20.8583 44.8061 20.7745 43.8293C20.2163 38.4973 19.2113 28.5867 12.539 27.9166C11.8131 27.8327 11.2831 27.2469 11.2549 26.5487C11.2268 25.8509 11.7574 25.2365 12.4552 25.1251C18.0106 24.2878 26.1627 25.488 34.5096 44.0802C37.2735 32.4394 44.9783 13.3441 54.6098 13.9586C55.056 13.9862 55.4752 14.2377 55.6981 14.6282C55.9214 15.0192 55.9777 15.4936 55.7819 15.9128C55.1399 17.3921 54.5535 18.7043 54.0511 19.8488C51.9297 24.5945 50.8685 26.9673 50.3103 32.2436C50.2265 33.0533 50.1708 34.0864 50.0869 35.2866C49.473 44.6666 48.189 64.2086 34.9839 64.2086V64.2086ZM19.2113 28.6986C22.4214 32.7742 23.0916 39.3627 23.5383 43.5502C23.6222 44.4713 23.706 45.2529 23.8174 45.8673C23.8732 46.2578 23.9294 46.7046 24.0127 47.2352C24.9062 54.0746 26.6089 61.4166 34.9839 61.4166C45.5646 61.4166 46.7373 43.634 47.3231 35.0913C47.4069 33.8349 47.4907 32.7742 47.5464 31.9645C48.1327 26.2139 49.3335 23.5619 51.5106 18.7043C51.7339 18.2018 51.9854 17.6712 52.2364 17.0849C44.4758 20.0164 37.6364 40.2281 36.3518 49.0498C36.2685 49.6637 35.766 50.1662 35.1235 50.2501C34.5096 50.3339 33.8951 49.971 33.6723 49.3847C28.3122 35.7615 23.1754 30.569 19.2113 28.6986Z" fill="black"/>
<path d="M37.7759 67H32.1924C31.4108 67 30.7964 66.3861 30.7964 65.604V62.8125C30.7964 62.0309 31.4108 61.4165 32.1924 61.4165C32.974 61.4165 33.5884 62.0309 33.5884 62.8125V64.2085H36.3799V62.8125C36.3799 62.0309 36.9943 61.4165 37.7759 61.4165C38.5575 61.4165 39.1714 62.0309 39.1714 62.8125V65.604C39.1714 66.3861 38.5575 67 37.7759 67Z" fill="black"/>
<path d="M34.9839 48.854C34.2024 48.854 33.5884 48.2401 33.5884 47.4585V1.396C33.5884 0.613914 34.2024 0 34.9839 0C35.766 0 36.3799 0.613914 36.3799 1.396V47.4585C36.3799 48.2401 35.766 48.854 34.9839 48.854Z" fill="black"/>
<path d="M41.9634 11.1665H28.0049C27.2233 11.1665 26.6089 10.5526 26.6089 9.771C26.6089 8.98891 27.2233 8.375 28.0049 8.375H41.9634C42.745 8.375 43.3589 8.98891 43.3589 9.771C43.3589 10.5526 42.745 11.1665 41.9634 11.1665Z" fill="black"/>
<path d="M43.3589 19.5415H25.2134C24.4319 19.5415 23.8174 18.9276 23.8174 18.146C23.8174 17.3639 24.4319 16.75 25.2134 16.75H43.3589C44.141 16.75 44.7549 17.3639 44.7549 18.146C44.7549 18.9276 44.141 19.5415 43.3589 19.5415Z" fill="black"/>
<path d="M41.9634 27.9165H25.2134C24.4319 27.9165 23.8174 27.3026 23.8174 26.521C23.8174 25.7389 24.4319 25.125 25.2134 25.125H41.9634C42.745 25.125 43.3589 25.7389 43.3589 26.521C43.3589 27.3026 42.745 27.9165 41.9634 27.9165Z" fill="black"/>
<path d="M34.9839 36.2915H28.0049C27.2233 36.2915 26.6089 35.6776 26.6089 34.896C26.6089 34.1139 27.2233 33.5 28.0049 33.5H34.9839C35.766 33.5 36.3799 34.1139 36.3799 34.896C36.3799 35.6776 35.766 36.2915 34.9839 36.2915Z" fill="black"/>
</g>
<defs>
<clipPath id="clip0">
<rect width="67" height="67" fill="white"/>
</clipPath>
</defs>
</svg>
