<svg width="67" height="67" viewBox="0 0 67 67" fill="none" xmlns="http://www.w3.org/2000/svg">
<path d="M50.4156 17.7209C46.1294 13.5305 34.1283 18.8547 29.938 23.1406C25.7476 27.4268 25.825 34.2982 30.111 38.4888C34.3971 42.6792 41.2685 42.6017 45.4592 38.3156C46.811 36.9329 48.2522 34.7347 49.441 32.2508L50.3669 30.1225C52.2277 25.383 52.9341 20.1834 50.4156 17.7209V17.7209Z" fill="#87796F"/>
<path d="M50.6902 17.4403C47.9699 14.7805 42.8363 15.947 40.0176 16.8792C36.0332 18.1972 31.8697 20.6032 29.6574 22.866C27.5574 25.014 26.4194 27.8513 26.4535 30.8547C26.4872 33.8587 27.6888 36.6693 29.8367 38.7691C31.9535 40.8388 34.7397 41.9741 37.6951 41.9741C37.7385 41.9741 37.782 41.9739 37.8254 41.9733C40.8291 41.9393 43.64 40.7378 45.7398 38.5898C47.112 37.1865 48.5902 34.9378 49.8009 32.4073L50.7271 30.279C50.7292 30.2745 50.731 30.2703 50.7328 30.2656C54.0059 21.9275 51.7931 18.5189 50.6902 17.4403V17.4403ZM50.004 29.9725L49.0864 32.0814C47.917 34.5246 46.4927 36.6968 45.1781 38.041C41.1456 42.1657 34.5094 42.24 30.3853 38.208C28.3873 36.2545 27.2695 33.6402 27.2381 30.8461C27.2067 28.052 28.2651 25.4128 30.2185 23.4149C32.3508 21.2337 36.388 18.9065 40.2638 17.6246C42.574 16.8604 44.393 16.5785 45.8196 16.5785C48.2031 16.5785 49.4902 17.3652 50.1411 18.0015C52.205 20.0193 52.1535 24.4939 50.004 29.9725V29.9725Z" fill="#3A312A"/>
<path d="M31.5 22C18.0011 22 7.05195 29.6058 7 39H56C55.9477 29.6058 44.9986 22 31.5 22Z" fill="#FCE8CB"/>
<path d="M31.4998 22C18.0426 22 7.0522 29.8978 7.00001 39.6061C6.99941 39.7102 7.0465 39.8106 7.13109 39.8847C7.21538 39.9584 7.33027 40 7.44995 40H19.6693C19.9179 40 20.1192 39.8242 20.1192 39.6077C20.1192 39.3911 19.9179 39.2153 19.6693 39.2153H7.9086C8.25145 30.1199 18.7211 22.7847 31.4998 22.7847C44.2789 22.7847 54.7485 30.1199 55.0914 39.2153H23.8067C23.558 39.2153 23.3567 39.3911 23.3567 39.6077C23.3567 39.8242 23.558 40 23.8067 40H55.55C55.6697 40 55.7843 39.9584 55.8692 39.8847C55.9535 39.8106 56.0006 39.7102 56 39.6061C55.9478 29.8978 44.9571 22 31.4998 22V22Z" fill="#3A312A"/>
<path d="M31.3586 28.7743L31.1351 28.114C30.9017 27.4249 30.01 27.2469 29.53 27.7934L29.0699 28.3171C28.5899 28.8635 28.8815 29.7248 29.5949 29.8675L30.2785 30.0038C30.992 30.1467 31.5921 29.4634 31.3586 28.7743V28.7743Z" fill="#F16C7A"/>
<path d="M31.7305 28.6484L31.507 27.9884C31.3518 27.5304 30.9762 27.2004 30.502 27.1059C30.0275 27.0104 29.5543 27.1716 29.235 27.5348L28.7752 28.0585C28.4559 28.4221 28.358 28.9125 28.5132 29.3705C28.6684 29.8285 29.044 30.1586 29.5182 30.253L30.2018 30.3894C30.2916 30.4072 30.3813 30.4164 30.4698 30.4164C30.8498 30.4164 31.2102 30.2551 31.4688 29.9604C31.7876 29.5969 31.8854 29.1065 31.7305 28.6484V28.6484ZM30.8786 29.442C30.747 29.5919 30.5504 29.6584 30.3552 29.6194L29.6716 29.4831C29.4758 29.4441 29.3206 29.3077 29.2567 29.1185C29.1926 28.929 29.2332 28.7267 29.3648 28.5767L29.8247 28.053C29.9314 27.9311 30.0804 27.8646 30.2371 27.8646C30.2738 27.8646 30.3109 27.8683 30.3478 27.8756C30.5439 27.9146 30.6988 28.0509 30.7629 28.2404L30.9864 28.9005C31.0508 29.0894 31.0105 29.292 30.8786 29.442V29.442Z" fill="#3A312A"/>
<path d="M4.33406 39.1584C4.33406 44.2452 8.45771 48.3689 13.5445 48.3689H53.4558C58.5426 48.3689 62.6662 44.2452 62.6662 39.1584H4.33406Z" fill="#87796F"/>
<path d="M62.6659 38.7659H21.4992C21.2822 38.7659 21.1066 38.9417 21.1066 39.1584C21.1066 39.3752 21.2822 39.551 21.4992 39.551H62.2647C62.0588 44.2319 58.1864 47.976 53.4555 47.976H13.5442C8.81338 47.976 4.94099 44.2316 4.73502 39.551H17.8895C18.1065 39.551 18.2821 39.3752 18.2821 39.1584C18.2821 38.9417 18.1065 38.7659 17.8895 38.7659H4.33407C4.1171 38.7659 3.94149 38.9417 3.94149 39.1584C3.94149 44.4533 8.24938 48.7612 13.5445 48.7612H53.4558C58.7509 48.7612 63.0588 44.4533 63.0588 39.1584C63.0585 38.9417 62.8829 38.7659 62.6659 38.7659Z" fill="#3A312A"/>
<path d="M21.1487 48.3684H45.8516V51.4384H21.1487V48.3684Z" fill="#87796F"/>
<path d="M45.8513 47.9761H21.1487C20.9317 47.9761 20.7561 48.1519 20.7561 48.3687V51.4386C20.7561 51.6553 20.9317 51.8312 21.1487 51.8312H35.6969C35.9136 51.8312 36.0894 51.6553 36.0894 51.4386C36.0894 51.2219 35.9136 51.046 35.6969 51.046H21.5413V48.7612H45.459V51.046H39.2858C39.0691 51.046 38.8932 51.2219 38.8932 51.4386C38.8932 51.6553 39.0691 51.8312 39.2858 51.8312H45.8516C46.0683 51.8312 46.2441 51.6553 46.2441 51.4386V48.3687C46.2439 48.1517 46.068 47.9761 45.8513 47.9761Z" fill="#3A312A"/>
<path d="M59.1589 12.4438C58.3889 11.6911 57.3219 11.4302 56.3452 11.6558C56.5488 10.6744 56.264 9.61362 55.4941 8.86066C54.293 7.68659 52.3663 7.70831 51.1906 8.90934C50.0163 10.1117 50.038 12.0384 51.239 13.2128C51.2676 13.2408 51.2977 13.2672 51.328 13.2952L48.2015 16.4913C49.0626 16.7334 49.814 17.1333 50.4151 17.7211C51.0163 18.309 51.4332 19.0509 51.6947 19.9065L52.6596 18.919L54.2684 17.2728L54.8193 16.7088C54.8481 16.7384 54.8751 16.768 54.9039 16.796C56.1049 17.9703 58.0317 17.9483 59.2073 16.7473C60.3819 15.545 60.3599 13.6182 59.1589 12.4438V12.4438Z" fill="#FCE8CB"/>
<path d="M59.4335 12.1635C58.7247 11.4702 57.7723 11.1276 56.7988 11.1922C56.8446 10.221 56.4779 9.27357 55.7689 8.58028C54.415 7.25676 52.2357 7.28137 50.9101 8.63524C49.6504 9.92525 49.612 11.9612 50.7784 13.2964L47.9213 16.2172C47.8244 16.3164 47.7867 16.4593 47.8226 16.5933C47.8584 16.7273 47.9621 16.8323 48.0956 16.87C48.9213 17.1021 49.6096 17.4832 50.1409 18.0024C50.6722 18.5219 51.0687 19.2013 51.3194 20.0218C51.36 20.1545 51.4673 20.2558 51.6021 20.2885C51.6327 20.2961 51.6638 20.2998 51.6947 20.2998C51.7989 20.2998 51.9007 20.2582 51.9755 20.1817L54.8312 17.2594C56.1913 18.3953 58.227 18.311 59.4882 17.0223C60.8119 15.666 60.7873 13.4867 59.4335 12.1635V12.1635ZM58.9268 16.4727C57.9045 17.5167 56.223 17.536 55.1792 16.5156L55.1007 16.4347C55.0272 16.3591 54.9256 16.3162 54.8199 16.3162H54.8196C54.7142 16.3162 54.6129 16.3588 54.5391 16.4342L53.9879 16.9979C53.9876 16.9979 53.9876 16.9979 53.9876 16.9979L51.8517 19.1841C51.5665 18.5018 51.1773 17.9168 50.69 17.4405C50.2024 16.9639 49.6091 16.5878 48.9205 16.318L51.6091 13.5694C51.6832 13.4935 51.7238 13.3909 51.7211 13.2849C51.7183 13.1789 51.6727 13.0784 51.595 13.0067L51.5141 12.9321C50.4696 11.9112 50.4505 10.2294 51.4717 9.1838C52.4937 8.1398 54.1753 8.12044 55.2201 9.1414C55.8689 9.77581 56.1458 10.6861 55.9613 11.5762C55.934 11.7073 55.9756 11.8431 56.0712 11.9366C56.1667 12.03 56.3041 12.0685 56.4339 12.0386C57.3193 11.8332 58.2359 12.0902 58.8847 12.7249C59.9289 13.7458 59.948 15.4271 58.9268 16.4727V16.4727Z" fill="#3A312A"/>
<path d="M12.5235 6.86206C12.2685 9.88858 9.11483 10.3665 9.11483 10.3665C11.8228 10.4939 12.4975 14.046 12.4975 14.046C12.5554 11.5133 15.9839 10.3291 15.9839 10.3291C13.4157 10.1752 12.5235 6.86206 12.5235 6.86206V6.86206Z" fill="#D7E057"/>
<path d="M16.0075 9.9374C13.7554 9.80235 12.9106 6.79023 12.9025 6.75961C12.8525 6.57563 12.6777 6.4534 12.4882 6.4712C12.2984 6.48847 12.1485 6.63922 12.1325 6.82897C11.9074 9.50269 9.17169 9.96017 9.05628 9.97797C8.85658 10.0083 8.71264 10.185 8.72311 10.3865C8.73358 10.5883 8.89506 10.749 9.09658 10.7584C11.4594 10.8699 12.1061 14.0872 12.1124 14.1199C12.1482 14.306 12.311 14.4384 12.4976 14.4384C12.5086 14.4384 12.5199 14.4379 12.5309 14.4371C12.7308 14.4204 12.886 14.2558 12.8905 14.055C12.9415 11.8281 16.0813 10.711 16.113 10.7C16.2897 10.6388 16.3988 10.4608 16.3732 10.2755C16.347 10.0902 16.1944 9.94866 16.0075 9.9374V9.9374ZM12.4571 12.6449C12.1019 11.8254 11.4863 10.8369 10.4714 10.3216C11.2385 9.95389 12.1487 9.2975 12.618 8.15641C13.0239 8.96014 13.7172 9.95729 14.7992 10.4394C14.0122 10.8686 12.9873 11.5922 12.4571 12.6449Z" fill="#3A312A"/>
<path d="M6.84473 11.3064C6.6644 13.447 4.43351 13.7849 4.43351 13.7849C6.34877 13.8749 6.82614 16.3874 6.82614 16.3874C6.86697 14.5962 9.29206 13.7584 9.29206 13.7584C7.47547 13.6498 6.84473 11.3064 6.84473 11.3064Z" fill="#D7E057"/>
<path d="M9.31557 13.3665C7.8065 13.2759 7.22915 11.2238 7.22339 11.2031C7.17366 11.0194 6.99936 10.8974 6.80935 10.9147C6.61934 10.9317 6.46938 11.083 6.45341 11.2727C6.30188 13.071 4.45205 13.3838 4.37484 13.3961C4.17515 13.4264 4.03121 13.6031 4.04167 13.8046C4.05214 14.0064 4.21362 14.1671 4.41515 14.1765C5.99462 14.2508 6.43666 16.4391 6.44059 16.4605C6.47592 16.6471 6.63923 16.7798 6.8261 16.7798C6.83683 16.7798 6.84782 16.7793 6.85881 16.7785C7.05903 16.762 7.21423 16.5971 7.21894 16.3961C7.25296 14.902 9.39932 14.1367 9.42052 14.1294C9.59744 14.0684 9.70684 13.8905 9.68119 13.7049C9.65554 13.5193 9.5027 13.3777 9.31557 13.3665V13.3665ZM6.80726 15.1446C6.56543 14.6513 6.19483 14.1116 5.64339 13.763C6.12914 13.4905 6.61097 13.0747 6.91822 12.4761C7.19486 12.9666 7.61283 13.5112 8.21138 13.8436C7.72694 14.1315 7.16738 14.5605 6.80726 15.1446V15.1446Z" fill="#3A312A"/>
<path d="M6.84473 4.32935C6.6644 6.46994 4.43351 6.80808 4.43351 6.80808C6.34877 6.89812 6.82614 9.41062 6.82614 9.41062C6.86697 7.61915 9.29206 6.78165 9.29206 6.78165C7.47547 6.67278 6.84473 4.32935 6.84473 4.32935Z" fill="#D7E057"/>
<path d="M9.31561 6.38947C7.80654 6.29918 7.22919 4.24704 7.22369 4.22636C7.17397 4.04264 6.99966 3.92041 6.80965 3.93795C6.61965 3.95496 6.46968 4.10623 6.45372 4.29598C6.30218 6.09425 4.45235 6.407 4.37515 6.4193C4.17546 6.44966 4.03151 6.62632 4.04198 6.82785C4.05245 7.02963 4.21393 7.19033 4.41545 7.19975C5.99492 7.27408 6.43697 9.46231 6.44089 9.48377C6.47622 9.67038 6.63954 9.80307 6.82614 9.80307C6.83687 9.80307 6.84787 9.80254 6.85886 9.80176C7.05907 9.78527 7.21427 9.62039 7.21898 9.41939C7.25301 7.92523 9.39962 7.15971 9.42056 7.15238C9.59774 7.09114 9.70688 6.91343 9.68123 6.72787C9.65558 6.54231 9.50274 6.40046 9.31561 6.38947V6.38947ZM6.8073 8.16785C6.56547 7.67425 6.19488 7.13484 5.64344 6.78623C6.12919 6.51379 6.61101 6.09791 6.91827 5.49936C7.1949 5.98982 7.61287 6.5342 8.21142 6.86658C7.72698 7.15447 7.16742 7.58369 6.8073 8.16785V8.16785Z" fill="#3A312A"/>
<path d="M61.8109 21.4368L61.1791 21.1423C60.5196 20.8351 59.775 21.3572 59.8389 22.0819L59.8998 22.7762C59.9637 23.5009 60.7878 23.8849 61.3838 23.4672L61.9546 23.067C62.55 22.6498 62.4704 21.744 61.8109 21.4368V21.4368Z" fill="#F16C7A"/>
<path d="M62.7442 22.1766C62.702 21.6948 62.4149 21.2855 61.9763 21.0811L61.3445 20.7869C60.9064 20.5825 60.4078 20.6265 60.0121 20.9039C59.6158 21.1816 59.4049 21.6346 59.4473 22.1164L59.5083 22.8108C59.5507 23.2926 59.8378 23.7019 60.2764 23.9063C60.4588 23.9914 60.652 24.0332 60.8436 24.0332C61.1118 24.0332 61.3777 23.9508 61.6088 23.7888L62.1796 23.3889C62.5756 23.1117 62.7866 22.6582 62.7442 22.1766V22.1766ZM61.7287 22.7461L61.1579 23.146C60.9943 23.2607 60.7881 23.2785 60.6078 23.1947C60.4269 23.1104 60.3081 22.9411 60.2906 22.7422L60.2296 22.0481C60.2123 21.8489 60.2995 21.6618 60.463 21.5474C60.6266 21.4331 60.8321 21.415 61.0137 21.4988L61.6452 21.7929C61.8263 21.8772 61.9451 22.0465 61.9624 22.2454C61.9794 22.4444 61.8923 22.6317 61.7287 22.7461Z" fill="#3A312A"/>
<path d="M53.6484 62.5363C59.4878 61.5897 63.4542 56.0886 62.5076 50.2492C61.5609 44.4098 56.0598 40.4434 50.2204 41.39C44.381 42.3366 40.4147 47.8378 41.3613 53.6771C42.3079 59.5165 47.809 63.4829 53.6484 62.5363Z" fill="#D7E057"/>
<path d="M51.9485 40.8535C45.8254 40.8535 40.8435 45.8351 40.8435 51.9585C40.8435 58.0819 45.8251 63.0635 51.9485 63.0635C58.0717 63.0635 63.0535 58.0819 63.0535 51.9585C63.0535 45.8351 58.072 40.8535 51.9485 40.8535V40.8535ZM51.9485 62.2781C46.2582 62.2781 41.6287 57.6488 41.6287 51.9582C41.6287 46.2677 46.258 41.6384 51.9485 41.6384C57.6391 41.6384 62.2684 46.2677 62.2684 51.9582C62.2684 57.6488 57.6388 62.2781 51.9485 62.2781Z" fill="#3A312A"/>
<path d="M58.8545 47.2685C58.3704 46.732 57.5428 46.6891 57.006 47.1735L49.6454 53.8136L47.0824 50.1945C46.6645 49.6046 45.8476 49.4654 45.2582 49.8828C44.6683 50.3005 44.5288 51.1174 44.9468 51.707L48.3609 56.5276C48.5768 56.8328 48.9131 57.0309 49.2845 57.072C49.3329 57.0772 49.3808 57.0798 49.4287 57.0798C49.7506 57.0798 50.0637 56.9608 50.3055 56.7428L58.7595 49.1163C59.2958 48.6326 59.3384 47.8051 58.8545 47.2685V47.2685Z" fill="#87796F"/>
<path d="M59.146 47.0058C58.8417 46.6684 58.424 46.4695 57.9701 46.4462C57.5158 46.424 57.0806 46.5779 56.7432 46.8822L49.7108 53.2263L47.403 49.9676C47.1405 49.5968 46.749 49.3505 46.3012 49.2741C45.8536 49.1974 45.4024 49.3002 45.0316 49.5627C44.6607 49.8255 44.4144 50.2168 44.338 50.6648C44.2613 51.1127 44.3642 51.5639 44.6269 51.9344L48.0408 56.755C48.3214 57.1515 48.759 57.4093 49.2437 57.463C49.3059 57.4695 49.3677 57.4732 49.4292 57.4732C49.8506 57.4732 50.2555 57.3175 50.5687 57.0351L59.0228 49.4083C59.3601 49.1042 59.5588 48.6865 59.5821 48.2327C59.6051 47.7789 59.4502 47.3431 59.146 47.0058V47.0058ZM58.4965 48.8252L50.0424 56.4517C49.8488 56.6268 49.5771 56.7095 49.3279 56.6823C49.068 56.6538 48.8322 56.5145 48.6812 56.3012L45.2671 51.4804C45.1258 51.2807 45.0706 51.0381 45.1116 50.797C45.1527 50.5557 45.2854 50.345 45.4854 50.2034C45.6419 50.0927 45.8248 50.0346 46.0127 50.0346C46.0646 50.0346 46.1166 50.0393 46.169 50.048C46.41 50.0891 46.6207 50.222 46.7623 50.4217L49.3256 54.0408C49.3902 54.1324 49.4912 54.1915 49.6027 54.2041C49.7132 54.2156 49.8257 54.1803 49.909 54.1054L57.2695 47.4651C57.4509 47.3012 57.6841 47.2191 57.9301 47.2306C58.1745 47.2431 58.3994 47.3502 58.5635 47.5318C58.7273 47.7132 58.8105 47.9479 58.798 48.1921C58.7849 48.4366 58.6781 48.6614 58.4965 48.8252Z" fill="#3A312A"/>
<path d="M51.9499 41.6382C51.6463 41.6382 51.3453 41.6513 51.047 41.6774C53.6903 42.4547 55.9097 44.224 57.2733 46.5533C57.4931 46.4695 57.7286 46.4329 57.9694 46.446C58.4248 46.4695 58.8409 46.6684 59.1472 47.006C59.7753 47.7022 59.7177 48.7805 59.0215 49.4086L58.5295 49.8535C58.6656 50.534 58.7363 51.238 58.7363 51.9578C58.7363 56.8257 55.4909 60.9321 51.047 62.2381C51.3453 62.2642 51.6463 62.2773 51.9499 62.2773C57.6397 62.2773 62.2695 57.6475 62.2695 51.9578C62.2695 46.268 57.6394 41.6382 51.9499 41.6382V41.6382Z" fill="#B9C239"/>
</svg>
