<svg width="67" height="67" viewBox="0 0 67 67" fill="none" xmlns="http://www.w3.org/2000/svg">
<path fill-rule="evenodd" clip-rule="evenodd" d="M38.5358 30.9789C38.5358 28.232 36.2696 25.9846 33.4998 25.9846C30.7301 25.9846 28.4639 28.232 28.4639 30.9789V33.4759C28.4639 34.7526 28.9534 35.9214 29.7556 36.8068C30.6793 37.8264 32.0175 38.4701 33.5 38.4701C34.9825 38.4701 36.3206 37.8263 37.2442 36.8068C38.0464 35.9215 38.5359 34.7526 38.5359 33.4759V30.9789H38.5358Z" fill="#BB6B57"/>
<path fill-rule="evenodd" clip-rule="evenodd" d="M37.2441 36.8069C36.3204 37.8265 34.9822 38.4702 33.4999 38.4702C32.0174 38.4702 30.6792 37.8264 29.7557 36.8066C26.7672 38.2091 24.6868 41.2316 24.6868 44.7128V60.2191H42.3129V44.7128C42.3129 41.2319 40.2325 38.2092 37.2441 36.8069V36.8069Z" fill="#FF5A58"/>
<path fill-rule="evenodd" clip-rule="evenodd" d="M22.9502 30.9789C22.9502 28.232 20.684 25.9846 17.9143 25.9846C15.1445 25.9846 12.8783 28.232 12.8783 30.9789V33.4759C12.8783 34.7526 13.3678 35.9214 14.17 36.8068C15.0937 37.8264 16.4319 38.4701 17.9144 38.4701C19.3969 38.4701 20.7351 37.8263 21.6587 36.8068C22.4608 35.9215 22.9504 34.7526 22.9504 33.4759V30.9789H22.9502Z" fill="#CC9081"/>
<path fill-rule="evenodd" clip-rule="evenodd" d="M21.6585 36.8069C20.7348 37.8265 19.3966 38.4702 17.9143 38.4702C16.4319 38.4702 15.0936 37.8264 14.1701 36.8066C11.1816 38.2091 9.1012 41.2316 9.1012 44.7128V60.2191H26.7274V44.7128C26.7274 41.2319 24.647 38.2092 21.6585 36.8069V36.8069Z" fill="#66E0F7"/>
<path fill-rule="evenodd" clip-rule="evenodd" d="M54.1214 30.9789C54.1214 28.232 51.8552 25.9846 49.0854 25.9846C46.3155 25.9846 44.0494 28.232 44.0494 30.9789V33.4759C44.0494 34.7526 44.539 35.9214 45.3411 36.8068C46.2649 37.8264 47.603 38.4701 49.0854 38.4701C50.5679 38.4701 51.9061 37.8263 52.8298 36.8068C53.632 35.9215 54.1215 34.7526 54.1215 33.4759V30.9789H54.1214Z" fill="#CC9081"/>
<path fill-rule="evenodd" clip-rule="evenodd" d="M52.8297 36.8069C51.906 37.8265 50.5678 38.4702 49.0853 38.4702C47.6028 38.4702 46.2646 37.8264 45.3412 36.8066C42.3526 38.2091 40.2722 41.2316 40.2722 44.7128V60.2191H57.8984V44.7128C57.8985 41.2319 55.8181 38.2092 52.8297 36.8069V36.8069Z" fill="#FF9346"/>
<path fill-rule="evenodd" clip-rule="evenodd" d="M31.9692 2.98652C29.6962 0.739521 25.9765 0.739521 23.7035 2.98652C17.5279 9.09123 29.4169 19.7603 33.5 20.8418C37.5831 19.7603 49.4721 9.09123 43.2965 2.98652C41.0235 0.739521 37.3038 0.739521 35.0308 2.98652C34.1196 3.88713 32.7856 3.79357 31.9692 2.98652V2.98652Z" fill="#FF5A58"/>
<path fill-rule="evenodd" clip-rule="evenodd" d="M15.1576 48.8267C15.1576 46.0798 12.8914 43.8325 10.1217 43.8325C7.35191 43.8325 5.08569 46.0799 5.08569 48.8267V51.3237C5.08569 52.6004 5.57524 53.7691 6.3774 54.6546C7.30113 55.6742 8.6393 56.3178 10.1217 56.3178C11.6042 56.3178 12.9423 55.674 13.8661 54.6546C14.6682 53.7693 15.1578 52.6004 15.1578 51.3237V48.8267H15.1576Z" fill="#BB6B57"/>
<path fill-rule="evenodd" clip-rule="evenodd" d="M13.866 54.6548C12.9422 55.6744 11.6041 56.3181 10.1216 56.3181C8.63906 56.3181 7.30089 55.6743 6.37742 54.6545C3.38887 56.057 1.30847 59.0795 1.30847 62.5607V65.7023H18.9346V62.5607C18.9348 59.0796 16.8544 56.0571 13.866 54.6548V54.6548Z" fill="#FFC144"/>
<path fill-rule="evenodd" clip-rule="evenodd" d="M30.7431 48.8267C30.7431 46.0798 28.4769 43.8325 25.7071 43.8325C22.9372 43.8325 20.6711 46.0799 20.6711 48.8267V51.3237C20.6711 52.6004 21.1607 53.7691 21.9629 54.6546C22.8866 55.6742 24.2247 56.3178 25.7071 56.3178C27.1896 56.3178 28.5278 55.674 29.4514 54.6546C30.2535 53.7693 30.7431 52.6004 30.7431 51.3237V48.8267Z" fill="#E5AE8C"/>
<path fill-rule="evenodd" clip-rule="evenodd" d="M29.4515 54.6548C28.5278 55.6744 27.1896 56.3181 25.7073 56.3181C24.2247 56.3181 22.8866 55.6743 21.9631 54.6545C18.9746 56.057 16.8942 59.0795 16.8942 62.5607V65.7023H34.5203V62.5607C34.5203 59.0796 32.4398 56.0571 29.4515 54.6548V54.6548Z" fill="#8481E2"/>
<path fill-rule="evenodd" clip-rule="evenodd" d="M46.3286 48.8267C46.3286 46.0798 44.0624 43.8325 41.2926 43.8325C38.5227 43.8325 36.2567 46.0799 36.2567 48.8267V51.3237C36.2567 52.6004 36.7462 53.7691 37.5484 54.6546C38.4721 55.6742 39.8103 56.3178 41.2928 56.3178C42.7753 56.3178 44.1134 55.674 45.037 54.6546C45.8392 53.7693 46.3287 52.6004 46.3287 51.3237V48.8267H46.3286Z" fill="#CC9081"/>
<path fill-rule="evenodd" clip-rule="evenodd" d="M45.037 54.6548C44.1132 55.6744 42.7751 56.3181 41.2927 56.3181C39.8102 56.3181 38.472 55.6743 37.5486 54.6545C34.56 56.057 32.4796 59.0795 32.4796 62.5607V65.7023H50.1058V62.5607C50.1058 59.0796 48.0254 56.0571 45.037 54.6548V54.6548Z" fill="white"/>
<path fill-rule="evenodd" clip-rule="evenodd" d="M61.9142 48.8267C61.9142 46.0798 59.648 43.8325 56.8782 43.8325C54.1083 43.8325 51.8422 46.0799 51.8422 48.8267V51.3237C51.8422 52.6004 52.3318 53.7691 53.1339 54.6546C54.0577 55.6742 55.3958 56.3178 56.8782 56.3178C58.3607 56.3178 59.6989 55.674 60.6225 54.6546C61.4246 53.7693 61.9142 52.6004 61.9142 51.3237V48.8267Z" fill="#E5AE8C"/>
<path fill-rule="evenodd" clip-rule="evenodd" d="M60.6225 54.6548C59.6987 55.6744 58.3606 56.3181 56.8782 56.3181C55.3957 56.3181 54.0575 55.6743 53.1341 54.6545C50.1455 56.057 48.0651 59.0795 48.0651 62.5607V65.7023H65.6913V62.5607C65.6913 59.0796 63.6109 56.0571 60.6225 54.6548V54.6548Z" fill="#CBE558"/>
<path d="M62.5046 54.2263C62.9624 53.3572 63.2228 52.3704 63.2228 51.3238V48.8266C63.2228 46.1105 61.4782 43.7912 59.042 42.9119C58.5512 40.233 56.9935 37.8898 54.7122 36.3775C55.1696 35.5087 55.4299 34.5221 55.4299 33.4761V30.9789C55.4299 27.5095 52.5837 24.687 49.0853 24.687C45.5869 24.687 42.7407 27.5095 42.7407 30.9789V33.4761C42.7407 34.5223 43.001 35.5088 43.4585 36.3777C42.6357 36.9234 41.9073 37.578 41.2885 38.3171C40.6658 37.5714 39.9384 36.9205 39.1256 36.3798C39.5838 35.5104 39.8444 34.5232 39.8444 33.4761V30.9789C39.8444 27.5095 36.9983 24.687 33.4999 24.687C30.0015 24.687 27.1553 27.5095 27.1553 30.9789V33.4761C27.1553 34.5232 27.416 35.5105 27.8743 36.3798C27.0569 36.9234 26.3261 37.5792 25.7009 38.3303C25.0811 37.5859 24.3545 36.9262 23.5398 36.3806C23.9982 35.511 24.2591 34.5234 24.2591 33.4761V30.9789C24.2591 27.5095 21.413 24.687 17.9145 24.687C14.4161 24.687 11.5699 27.5095 11.5699 30.9789V33.4761C11.5699 34.5223 11.8302 35.5088 12.2876 36.3777C10.0082 37.8895 8.4489 40.2331 7.95779 42.912C5.52159 43.7912 3.77711 46.1105 3.77711 48.8266V51.3238C3.77711 52.3703 4.03752 53.3572 4.49526 54.2263C1.69436 56.0817 0 59.1711 0 62.5607V65.7022C0 66.419 0.585855 66.9999 1.30859 66.9999H16.8941H32.4797H50.1059H65.6914C66.414 66.9999 67 66.419 67 65.7022V62.5607C66.9999 59.1711 65.3057 56.0816 62.5046 54.2263V54.2263ZM60.6057 48.8266V51.3238C60.6057 53.362 58.9336 55.0202 56.8783 55.0202C54.8231 55.0202 53.151 53.362 53.151 51.3238V48.8266C53.151 46.7883 54.8231 45.1302 56.8783 45.1302C58.9336 45.1302 60.6057 46.7884 60.6057 48.8266ZM56.2658 42.5646C53.0537 42.8713 50.5336 45.5622 50.5336 48.8266V51.3238C50.5336 52.3709 50.7944 53.3584 51.2527 54.2278C50.4415 54.7677 49.7151 55.4189 49.0925 56.1638C48.4744 55.4263 47.7444 54.7731 46.9191 54.2263C47.3768 53.3572 47.6372 52.3703 47.6372 51.3238V48.8266C47.6372 45.5623 45.1173 42.8714 41.9053 42.5646C42.4357 40.8549 43.5899 39.355 45.1358 38.3949C46.2205 39.2531 47.593 39.7679 49.0853 39.7679C50.5775 39.7679 51.9499 39.2531 53.0346 38.3949C54.5818 39.3554 55.7354 40.8546 56.2658 42.5646V42.5646ZM37.5651 51.3238V48.8266C37.5651 46.7884 39.2373 45.1302 41.2925 45.1302C43.3478 45.1302 45.0199 46.7884 45.0199 48.8266V51.3238C45.0199 53.362 43.3478 55.0202 41.2925 55.0202C39.2373 55.0202 37.5651 53.362 37.5651 51.3238ZM45.3579 30.9789C45.3579 28.9405 47.03 27.2824 49.0853 27.2824C51.1406 27.2824 52.8127 28.9407 52.8127 30.9789V33.4761C52.8127 35.5142 51.1406 37.1725 49.0853 37.1725C47.03 37.1725 45.3579 35.5142 45.3579 33.4761V30.9789ZM29.7724 30.9789C29.7724 28.9405 31.4445 27.2824 33.4997 27.2824C35.555 27.2824 37.2271 28.9407 37.2271 30.9789V33.4761C37.2271 35.5142 35.555 37.1725 33.4997 37.1725C31.4443 37.1725 29.7722 35.5142 29.7722 33.4761V30.9789H29.7724ZM29.5506 38.3949C30.6352 39.2531 32.0077 39.7679 33.4999 39.7679C34.9921 39.7679 36.3645 39.2531 37.4491 38.395C38.3979 38.9807 39.2005 39.7639 39.8082 40.6986C39.4991 41.4009 39.2697 42.1426 39.1286 42.912C36.6924 43.7912 34.948 46.1106 34.948 48.8266V51.3238C34.948 52.3703 35.2084 53.3571 35.6661 54.2261C34.841 54.7726 34.1112 55.4254 33.4935 56.1622C32.8712 55.4176 32.1447 54.7675 31.3329 54.2276C31.7911 53.3581 32.0518 52.3708 32.0518 51.3237V48.8266C32.0518 46.1098 30.3064 43.7902 27.8694 42.9114C27.7274 42.1512 27.4958 41.413 27.1836 40.7112C27.7922 39.7708 28.5978 38.983 29.5506 38.3949V38.3949ZM21.9796 51.3238V48.8266C21.9796 46.7883 23.6517 45.1302 25.7071 45.1302C27.7625 45.1302 29.4346 46.7884 29.4346 48.8266V51.3238C29.4346 53.362 27.7625 55.0202 25.7071 55.0202C23.6517 55.0202 21.9796 53.362 21.9796 51.3238V51.3238ZM14.1868 30.9789C14.1868 28.9405 15.8589 27.2824 17.9142 27.2824C19.9696 27.2824 21.6417 28.9407 21.6417 30.9789V33.4761C21.6417 35.5142 19.9696 37.1725 17.9143 37.1725C15.8589 37.1725 14.1868 35.5142 14.1868 33.4761V30.9789ZM13.9649 38.3949C15.0496 39.2531 16.422 39.7679 17.9143 39.7679C19.4065 39.7679 20.7791 39.2531 21.8636 38.3949C23.411 39.3554 24.5643 40.8545 25.0945 42.5646C21.8825 42.8713 19.3624 45.5622 19.3624 48.8266V51.3238C19.3624 52.3703 19.6228 53.3572 20.0806 54.2263C19.2558 54.7726 18.5262 55.4251 17.9084 56.1617C17.2863 55.4171 16.5594 54.7675 15.7473 54.2276C16.2054 53.3581 16.4661 52.3709 16.4661 51.3238V48.8266C16.4661 45.5623 13.9462 42.8714 10.7342 42.5646C11.2649 40.8549 12.4189 39.355 13.9649 38.3949ZM6.39416 48.8266C6.39416 46.7883 8.06627 45.1302 10.1217 45.1302C12.1769 45.1302 13.8491 46.7884 13.8491 48.8266V51.3238C13.8491 53.362 12.1769 55.0202 10.1217 55.0202C8.06627 55.0202 6.39416 53.362 6.39416 51.3238V48.8266ZM2.61705 62.5607C2.61705 59.9626 3.9628 57.601 6.17157 56.2423C7.25626 57.1007 8.6291 57.6158 10.1215 57.6158C11.6137 57.6158 12.9862 57.101 14.0709 56.2428C15.0189 56.8279 15.8206 57.6094 16.4278 58.543C15.8809 59.785 15.5854 61.1466 15.5854 62.5607V64.4045H2.61705V62.5607ZM18.2026 62.5607C18.2026 59.9626 19.5482 57.601 21.757 56.2423C22.8417 57.1007 24.2145 57.6158 25.707 57.6158C27.1991 57.6158 28.5716 57.101 29.6563 56.2429C30.6038 56.8278 31.4056 57.6098 32.0131 58.5435C31.4663 59.7854 31.1708 61.1469 31.1708 62.5609V64.4046H18.2025V62.5607H18.2026ZM33.7882 62.5607C33.7882 59.9626 35.1338 57.601 37.3425 56.2423C38.4272 57.1007 39.8001 57.6158 41.2925 57.6158C42.785 57.6158 44.1578 57.1008 45.2425 56.2423C47.4511 57.6011 48.7971 59.9635 48.7971 62.5607V64.4045H33.7882V62.5607ZM64.3827 64.4044H51.4143V62.5606C51.4143 61.1471 51.1188 59.7857 50.572 58.5436C51.1797 57.6101 51.9824 56.8273 52.9289 56.2427C54.0134 57.1008 55.3859 57.6155 56.8781 57.6155C58.3705 57.6155 59.7434 57.1006 60.8281 56.242C63.0369 57.6007 64.3826 59.9623 64.3826 62.5605V64.4044H64.3827Z" fill="black"/>
<path d="M22.9322 11.0321C23.6119 10.7887 23.9641 10.0448 23.7186 9.37077C22.8957 7.11119 23.1929 5.32346 24.6273 3.90557C26.3966 2.15638 29.2758 2.15638 31.0452 3.90557C32.4216 5.2661 34.578 5.26623 35.9544 3.90557C37.724 2.15638 40.603 2.15638 42.3725 3.90557C43.657 5.17539 44.0272 6.73563 43.5039 8.67533C42.1927 13.5359 36.1109 18.4994 33.5009 19.4783C32.7541 19.1959 31.7123 18.5787 30.6252 17.7682C30.0474 17.3373 29.2269 17.4527 28.7929 18.0256C28.3586 18.5986 28.4748 19.4121 29.0525 19.8427C30.6144 21.0071 32.0739 21.8072 33.1623 22.0954C33.2728 22.1247 33.3864 22.1394 33.5 22.1394C33.6136 22.1394 33.727 22.1247 33.8378 22.0954C35.5795 21.6341 38.2311 19.8662 40.5932 17.5914C42.2153 16.0294 45.0788 12.8811 46.0324 9.34599C46.797 6.51178 46.1704 3.99486 44.2202 2.06736C41.432 -0.689119 36.895 -0.689119 34.1069 2.06736C33.7085 2.46109 33.1946 2.36544 32.8931 2.06736C30.1046 -0.68899 25.5679 -0.68873 22.7797 2.06736C20.6134 4.20872 20.0868 7.03904 21.257 10.2522C21.5025 10.9263 22.2524 11.2752 22.9322 11.0321V11.0321Z" fill="black"/>
<path d="M25.5586 13.4971C24.8358 13.4971 24.2505 14.0781 24.2505 14.7948C24.2505 15.5115 24.8367 16.0925 25.5595 16.0925C26.2822 16.0925 26.8681 15.5115 26.8681 14.7948C26.8681 14.0781 26.2822 13.4971 25.5595 13.4971H25.5586Z" fill="black"/>
</svg>
