<svg width="67" height="67" viewBox="0 0 67 67" fill="none" xmlns="http://www.w3.org/2000/svg">
<path fill-rule="evenodd" clip-rule="evenodd" d="M13.9583 30.7083V33.5H36.2917V13.9583H8.375V11.1667C8.375 9.62567 9.62567 8.375 11.1667 8.375H39.0833C40.6243 8.375 41.875 9.62567 41.875 11.1667V16.75H54.9037C58.022 16.75 59.3704 18.358 60.3084 19.8404C61.9666 22.4645 64.5964 26.6297 66.196 29.2706C66.7208 30.1416 67 31.141 67 32.16V44.6667C67 47.7068 64.9258 50.25 61.4167 50.25H58.625C58.625 54.873 54.873 58.625 50.25 58.625C45.627 58.625 41.875 54.873 41.875 50.25H30.7083C30.7083 54.873 26.9563 58.625 22.3333 58.625C17.7103 58.625 13.9583 54.873 13.9583 50.25H11.1667C9.62567 50.25 8.375 48.9993 8.375 47.4583V30.7083H2.79167V25.125H22.3333V30.7083H13.9583ZM22.3333 46.9C24.1814 46.9 25.6833 48.4019 25.6833 50.25C25.6833 52.0981 24.1814 53.6 22.3333 53.6C20.4853 53.6 18.9833 52.0981 18.9833 50.25C18.9833 48.4019 20.4853 46.9 22.3333 46.9ZM50.25 46.9C52.0981 46.9 53.6 48.4019 53.6 50.25C53.6 52.0981 52.0981 53.6 50.25 53.6C48.4019 53.6 46.9 52.0981 46.9 50.25C46.9 48.4019 48.4019 46.9 50.25 46.9ZM41.875 39.0833H13.9583V44.6667H16.094C17.6266 42.9526 19.8543 41.875 22.3333 41.875C24.8123 41.875 27.0401 42.9526 28.5727 44.6667H44.0106C45.5433 42.9526 47.771 41.875 50.25 41.875C52.729 41.875 54.9568 42.9526 56.4894 44.6667H61.4167V31.8948L56.6401 23.718C56.1404 22.861 55.222 22.3333 54.2309 22.3333H41.875V39.0833ZM44.6667 25.125V33.5H58.625L54.6413 26.532C54.1444 25.661 53.2203 25.125 52.2181 25.125H44.6667ZM0 16.75H22.3333V22.3333H0V16.75Z" fill="#2C5E39"/>
</svg>
