<?xml version="1.0" encoding="UTF-8" standalone="no"?>
<!DOCTYPE svg PUBLIC "-//W3C//DTD SVG 1.1//EN" "http://www.w3.org/Graphics/SVG/1.1/DTD/svg11.dtd">
<svg width="100%" height="100%" viewBox="0 0 710 106" version="1.1" xmlns="http://www.w3.org/2000/svg" xmlns:xlink="http://www.w3.org/1999/xlink" xml:space="preserve" xmlns:serif="http://www.serif.com/" style="fill-rule:evenodd;clip-rule:evenodd;stroke-linejoin:round;stroke-miterlimit:2;">
    <g transform="matrix(1,0,0,1,-29.4,-242.208)">
        <g>
            <g>
                <g id="logo" transform="matrix(1.16026,0,0,1.16026,82.1917,295)">
                    <g transform="matrix(1,0,0,1,-45.5,-45.5)">
                        <g>
                            <path d="M50.833,59.551C42.993,76.309 36.699,78.367 31.304,75.843C25.909,73.319 23.456,67.169 31.296,50.411C39.136,33.653 54.301,12.633 59.696,15.157C65.091,17.681 58.673,42.793 50.833,59.551Z" style="fill:rgb(255,240,173);fill-rule:nonzero;"/>
                            <path d="M59.696,15.157C59.07,14.864 58.312,14.888 57.45,15.186C59.919,21.683 54.1,43.024 47.17,57.837C40.239,72.651 34.518,75.977 29.557,74.806C30.092,75.208 30.678,75.55 31.304,75.843C36.699,78.367 42.992,76.309 50.833,59.551C58.673,42.793 65.091,17.681 59.696,15.157Z" style="fill:rgb(255,225,119);fill-rule:nonzero;"/>
                            <path d="M31.304,75.844C31.304,75.844 48.815,38.677 37.806,27.37C37.511,27.066 37.002,27.151 36.816,27.531C34.043,33.167 17.044,69.132 31.304,75.844Z" style="fill:rgb(34,179,127);fill-rule:nonzero;"/>
                            <path d="M37.807,27.369C37.511,27.066 37.003,27.15 36.816,27.53C36.661,27.846 36.46,28.258 36.223,28.754C41.876,41.152 30.438,67.903 28.059,73.204C28.887,74.312 29.955,75.209 31.304,75.843C31.304,75.843 48.815,38.676 37.807,27.369Z" style="fill:rgb(9,167,109);fill-rule:nonzero;"/>
                            <path d="M31.303,75.844C31.303,75.844 48.614,38.583 64.348,39.787C64.77,39.82 65.031,40.264 64.86,40.651C62.31,46.391 45.595,82.489 31.303,75.844Z" style="fill:rgb(34,179,127);fill-rule:nonzero;"/>
                            <path d="M64.86,40.65C65.032,40.263 64.771,39.819 64.349,39.786C63.117,39.692 61.875,39.834 60.633,40.175C57.162,47.748 44.144,74.26 31.743,74.928C31.455,75.517 31.304,75.843 31.304,75.843C45.595,82.488 62.31,46.391 64.86,40.65Z" style="fill:rgb(9,167,109);fill-rule:nonzero;"/>
                            <path d="M56.408,20.135L57.982,20.871C58.473,21.101 59.057,20.889 59.287,20.398C59.517,19.907 59.305,19.323 58.814,19.093L57.239,18.357C56.748,18.127 56.164,18.339 55.934,18.83C55.705,19.321 55.917,19.905 56.408,20.135Z" style="fill:rgb(255,209,91);fill-rule:nonzero;"/>
                            <path d="M47.848,42.533L46.273,41.796C45.782,41.566 45.198,41.778 44.968,42.269C44.739,42.76 44.95,43.344 45.441,43.574L47.016,44.311C47.507,44.54 48.091,44.329 48.321,43.838C48.551,43.346 48.339,42.762 47.848,42.533Z" style="fill:rgb(255,209,91);fill-rule:nonzero;"/>
                            <path d="M52.618,23.109L54.192,23.846C54.683,24.076 55.267,23.864 55.497,23.373C55.727,22.882 55.515,22.298 55.024,22.068L53.45,21.331C52.958,21.102 52.374,21.313 52.145,21.804C51.915,22.295 52.127,22.879 52.618,23.109Z" style="fill:rgb(255,209,91);fill-rule:nonzero;"/>
                            <path d="M56.177,23.691C55.947,24.182 56.159,24.766 56.65,24.996L58.225,25.732C58.716,25.962 59.3,25.75 59.53,25.259C59.759,24.768 59.548,24.184 59.056,23.954L57.482,23.218C56.991,22.988 56.407,23.2 56.177,23.691Z" style="fill:rgb(255,209,91);fill-rule:nonzero;"/>
                            <path d="M47.157,29.568L48.731,30.305C49.222,30.534 49.806,30.323 50.036,29.832C50.266,29.34 50.054,28.757 49.563,28.527L47.988,27.79C47.497,27.56 46.913,27.772 46.684,28.263C46.454,28.754 46.666,29.338 47.157,29.568Z" style="fill:rgb(255,209,91);fill-rule:nonzero;"/>
                            <path d="M54.005,31.688C54.234,31.197 54.023,30.613 53.532,30.384L51.957,29.647C51.466,29.417 50.882,29.629 50.652,30.12C50.423,30.611 50.634,31.195 51.125,31.425L52.7,32.161C53.191,32.391 53.775,32.179 54.005,31.688Z" style="fill:rgb(255,209,91);fill-rule:nonzero;"/>
                            <path d="M54.621,31.977C54.392,32.468 54.603,33.052 55.094,33.282L56.669,34.018C57.16,34.248 57.744,34.036 57.974,33.545C58.203,33.054 57.992,32.47 57.501,32.24L55.926,31.504C55.435,31.274 54.851,31.486 54.621,31.977Z" style="fill:rgb(255,209,91);fill-rule:nonzero;"/>
                            <path d="M45.765,36.644L44.191,35.907C43.7,35.677 43.116,35.889 42.886,36.38C42.656,36.871 42.868,37.455 43.359,37.685L44.934,38.421C45.425,38.651 46.009,38.439 46.239,37.948C46.468,37.457 46.257,36.873 45.765,36.644Z" style="fill:rgb(255,209,91);fill-rule:nonzero;"/>
                            <path d="M49.734,38.5L48.16,37.764C47.669,37.534 47.085,37.746 46.855,38.237C46.625,38.728 46.837,39.312 47.328,39.542L48.902,40.278C49.393,40.508 49.978,40.296 50.207,39.805C50.437,39.314 50.225,38.73 49.734,38.5Z" style="fill:rgb(255,209,91);fill-rule:nonzero;"/>
                            <path d="M53.703,40.357L52.129,39.621C51.638,39.391 51.054,39.603 50.824,40.094C50.594,40.585 50.806,41.169 51.297,41.399L52.871,42.135C53.362,42.365 53.947,42.153 54.176,41.662C54.406,41.171 54.194,40.587 53.703,40.357Z" style="fill:rgb(255,209,91);fill-rule:nonzero;"/>
                            <path d="M50.471,26.625L52.045,27.361C52.536,27.591 53.12,27.379 53.35,26.888C53.58,26.397 53.368,25.813 52.877,25.583L51.303,24.847C50.812,24.617 50.227,24.829 49.998,25.32C49.768,25.811 49.98,26.395 50.471,26.625Z" style="fill:rgb(255,209,91);fill-rule:nonzero;"/>
                            <path d="M56.062,27.073C55.571,26.843 54.987,27.055 54.757,27.546C54.527,28.037 54.739,28.621 55.23,28.851L56.804,29.588C57.295,29.817 57.879,29.606 58.109,29.115C58.339,28.624 58.127,28.039 57.636,27.81L56.062,27.073Z" style="fill:rgb(255,209,91);fill-rule:nonzero;"/>
                            <path d="M49.112,33.632L47.537,32.895C47.046,32.666 46.462,32.877 46.232,33.368C46.003,33.859 46.214,34.443 46.705,34.673L48.28,35.41C48.771,35.64 49.355,35.428 49.585,34.937C49.814,34.446 49.603,33.862 49.112,33.632Z" style="fill:rgb(255,209,91);fill-rule:nonzero;"/>
                            <path d="M51.464,36.9L53.039,37.636C53.53,37.866 54.114,37.654 54.344,37.163C54.573,36.672 54.362,36.088 53.871,35.858L52.296,35.122C51.805,34.892 51.221,35.104 50.991,35.595C50.762,36.086 50.973,36.67 51.464,36.9Z" style="fill:rgb(255,209,91);fill-rule:nonzero;"/>
                        </g>
                    </g>
                </g>
                <g transform="matrix(1,0,0,1,-47.081,54.9395)">
                    <text x="164.2px" y="258px" style="font-family:'Arial-BoldMT', 'Arial', sans-serif;font-weight:700;font-size:50px;fill:white;">Bulateke Milling Company</text>
                </g>
            </g>
        </g>
    </g>
</svg>
