<svg width="91" height="91" viewBox="0 0 91 91" fill="none" xmlns="http://www.w3.org/2000/svg">
<g clip-path="url(#clip0)">
<path d="M50.8327 59.5512C42.9925 76.3093 36.6989 78.3674 31.3039 75.8434C25.909 73.3194 23.4555 67.1692 31.2958 50.411C39.136 33.6528 54.301 12.6326 59.6959 15.1566C65.0909 17.6806 58.6729 42.793 50.8327 59.5512Z" fill="#FFF0AD"/>
<path d="M59.6959 15.1565C59.0698 14.8636 58.3121 14.8882 57.4496 15.186C59.9188 21.6829 54.1 43.0238 47.1695 57.8373C40.2392 72.6507 34.5175 75.9768 29.5565 74.8063C30.0919 75.2079 30.6777 75.5504 31.3039 75.8434C36.6988 78.3674 42.9924 76.3094 50.8327 59.5511C58.6729 42.793 65.0909 17.6805 59.6959 15.1565L59.6959 15.1565Z" fill="#FFE177"/>
<path d="M31.3035 75.8442C31.3035 75.8442 48.8146 38.6767 37.8063 27.3698C37.5108 27.0664 37.0024 27.151 36.8157 27.5305C34.043 33.1668 17.0436 69.1316 31.3035 75.8442Z" fill="#22B37F"/>
<path d="M37.8068 27.3689C37.5114 27.0655 37.003 27.1502 36.8163 27.5296C36.6607 27.8457 36.4602 28.258 36.2231 28.7544C41.8755 41.1523 30.4382 67.9034 28.0591 73.2042C28.887 74.3117 29.9554 75.2086 31.304 75.8434C31.304 75.8434 48.8151 38.6759 37.8068 27.3689Z" fill="#09A76D"/>
<path d="M31.3034 75.8442C31.3034 75.8442 48.6136 38.5826 64.3482 39.7872C64.7704 39.8196 65.0312 40.2641 64.8596 40.6506C62.3097 46.3912 45.5949 82.4892 31.3034 75.8442Z" fill="#22B37F"/>
<path d="M64.86 40.6498C65.0317 40.2634 64.7707 39.8187 64.3486 39.7864C63.1167 39.6921 61.8752 39.8337 60.633 40.1745C57.162 47.7475 44.1442 74.2604 31.7425 74.9275C31.4554 75.5174 31.3039 75.8434 31.3039 75.8434C45.5953 82.4884 62.3102 46.3905 64.86 40.6498V40.6498Z" fill="#09A76D"/>
<path d="M56.4075 20.1348L57.9819 20.8714C58.473 21.1011 59.0571 20.8894 59.2868 20.3983C59.5165 19.9072 59.3048 19.3232 58.8137 19.0934L57.2393 18.3569C56.7482 18.1271 56.1642 18.3389 55.9344 18.8299C55.7047 19.321 55.9166 19.9051 56.4075 20.1348V20.1348Z" fill="#FFD15B"/>
<path d="M47.8477 42.5326L46.2732 41.7961C45.7822 41.5663 45.1981 41.7781 44.9684 42.2691C44.7386 42.7602 44.9504 43.3442 45.4414 43.574L47.0159 44.3106C47.5069 44.5403 48.091 44.3286 48.3207 43.8375C48.5505 43.3464 48.3386 42.7623 47.8477 42.5326Z" fill="#FFD15B"/>
<path d="M52.6177 23.1091L54.1921 23.8457C54.6832 24.0755 55.2673 23.8637 55.497 23.3727C55.7267 22.8816 55.515 22.2975 55.0239 22.0678L53.4495 21.3312C52.9584 21.1015 52.3744 21.3132 52.1446 21.8043C51.9149 22.2953 52.1267 22.8794 52.6177 23.1091Z" fill="#FFD15B"/>
<path d="M56.1771 23.6909C55.9474 24.182 56.1591 24.766 56.6502 24.9958L58.2246 25.7324C58.7157 25.9621 59.2997 25.7504 59.5295 25.2593C59.7592 24.7682 59.5475 24.1842 59.0564 23.9544L57.482 23.2179C56.991 22.9882 56.4069 23.1999 56.1771 23.6909Z" fill="#FFD15B"/>
<path d="M47.1565 29.5681L48.731 30.3047C49.222 30.5344 49.8061 30.3227 50.0358 29.8316C50.2656 29.3405 50.0538 28.7565 49.5628 28.5267L47.9883 27.7901C47.4973 27.5604 46.9132 27.7721 46.6835 28.2632C46.4537 28.7543 46.6655 29.3383 47.1565 29.5681Z" fill="#FFD15B"/>
<path d="M54.0046 31.6884C54.2343 31.1973 54.0226 30.6133 53.5315 30.3835L51.9571 29.6469C51.466 29.4172 50.882 29.629 50.6522 30.12C50.4225 30.6111 50.6342 31.1951 51.1253 31.4249L52.6997 32.1615C53.1906 32.3912 53.7748 32.1795 54.0046 31.6884Z" fill="#FFD15B"/>
<path d="M54.6212 31.9768C54.3915 32.4679 54.6032 33.052 55.0943 33.2817L56.6687 34.0183C57.1598 34.248 57.7438 34.0363 57.9736 33.5452C58.2033 33.0542 57.9916 32.4701 57.5005 32.2404L55.9261 31.5038C55.435 31.274 54.8509 31.4859 54.6212 31.9768Z" fill="#FFD15B"/>
<path d="M45.7654 36.6435L44.191 35.9069C43.6999 35.6771 43.1158 35.8889 42.8861 36.38C42.6564 36.871 42.8681 37.4551 43.3592 37.6848L44.9336 38.4214C45.4247 38.6511 46.0087 38.4394 46.2385 37.9483C46.4682 37.4573 46.2565 36.8732 45.7654 36.6435Z" fill="#FFD15B"/>
<path d="M49.7341 38.5003L48.1597 37.7637C47.6687 37.5339 47.0846 37.7457 46.8549 38.2368C46.6251 38.7278 46.8369 39.3119 47.3279 39.5416L48.9023 40.2782C49.3934 40.5079 49.9775 40.2962 50.2072 39.8051C50.4369 39.3141 50.2251 38.73 49.7341 38.5003Z" fill="#FFD15B"/>
<path d="M53.7031 40.3571L52.1287 39.6205C51.6376 39.3908 51.0536 39.6025 50.8238 40.0936C50.5941 40.5847 50.8059 41.1687 51.2969 41.3985L52.8713 42.135C53.3624 42.3648 53.9465 42.153 54.1762 41.662C54.4059 41.1709 54.1942 40.5869 53.7031 40.3571Z" fill="#FFD15B"/>
<path d="M50.4707 26.6246L52.0452 27.3611C52.5362 27.5909 53.1203 27.3791 53.35 26.8881C53.5798 26.397 53.368 25.8129 52.877 25.5832L51.3025 24.8466C50.8115 24.6169 50.2274 24.8286 49.9977 25.3197C49.7679 25.8108 49.9798 26.3949 50.4707 26.6246Z" fill="#FFD15B"/>
<path d="M56.0616 27.0731C55.5705 26.8434 54.9865 27.0551 54.7567 27.5462C54.527 28.0372 54.7387 28.6213 55.2298 28.851L56.8042 29.5876C57.2953 29.8174 57.8793 29.6056 58.1091 29.1146C58.3388 28.6235 58.1271 28.0394 57.636 27.8097L56.0616 27.0731Z" fill="#FFD15B"/>
<path d="M49.1116 33.6318L47.5372 32.8952C47.0461 32.6655 46.462 32.8772 46.2323 33.3683C46.0026 33.8593 46.2143 34.4434 46.7054 34.6731L48.2798 35.4097C48.7708 35.6395 49.3549 35.4277 49.5846 34.9367C49.8144 34.4456 49.6026 33.8615 49.1116 33.6318Z" fill="#FFD15B"/>
<path d="M51.4644 36.8996L53.0388 37.6362C53.5299 37.866 54.1139 37.6542 54.3437 37.1631C54.5734 36.6721 54.3617 36.088 53.8706 35.8583L52.2962 35.1217C51.8051 34.892 51.2211 35.1037 50.9913 35.5948C50.7616 36.0858 50.9733 36.6699 51.4644 36.8996Z" fill="#FFD15B"/>
</g>
<defs>
<clipPath id="clip0">
<rect width="67" height="67" fill="white" transform="translate(29.3525 0.960571) rotate(25.0723)"/>
</clipPath>
</defs>
</svg>
